<?xml version="1.0" encoding="utf-8"?>
<!-- Generator: Adobe Illustrator 22.1.0, SVG Export Plug-In . SVG Version: 6.00 Build 0)  -->
<svg version="1.1" id="Layer_1" xmlns="http://www.w3.org/2000/svg" xmlns:xlink="http://www.w3.org/1999/xlink" x="0px" y="0px"
	 viewBox="0 0 42 42" style="enable-background:new 0 0 42 42;" xml:space="preserve">
<style type="text/css">
	.st0{fill:#E2E6E9;}
	.st1{fill:#A1AAB1;}
	.st2{fill:#FFFFFF;}
	.st3{fill:#9DAAB3;}
	.st4{fill:#ECEDEF;}
</style>
<g>
	<circle class="st0" cx="21" cy="21.1" r="20"/>
	<path class="st1" d="M21,4.7c0,0,2.9-0.1,2.9,3.5c0,0,7.4,1,7.4,6.8s0,8.3,0,8.3s0.6,5.8,4.4,8.6c0,0,2.1,1-10.1,2.4
		c0,0-0.3,2.9-4.3,2.9c-5,0-4.9-2.9-4.9-2.9s-9.9-0.7-9.3-2.4c0.6-1.7,4.2-4.2,4.2-8.1s0-7.8,0-7.8s-0.1-7.9,7.4-7.9
		C18.6,8.2,18.2,4.7,21,4.7z"/>
	<path class="st2" d="M21.1,9c3.9,0,9.2,0.8,9.2,6.1s0,8.6,0,8.6s0.3,3.9,3.6,8.1c0,0-5.6,1.4-13.3,1.4S8.6,31.5,8.6,31.5
		s3.6-3.3,3.6-8.1s0-7.8,0-7.8S11.7,9,21.1,9z"/>
	<path class="st3" d="M15.2,18.6c0,0,0.3,0.6,2.2,0.6s2.2-0.8,2.2-0.8s0.3,1.7-2.2,1.7S15.2,18.6,15.2,18.6z"/>
	<path class="st3" d="M22.9,18.6c0,0,0.3,0.6,2.2,0.6s2.2-0.8,2.2-0.8s0.3,1.7-2.2,1.7S22.9,18.6,22.9,18.6z"/>
	<ellipse class="st3" cx="21.1" cy="24.3" rx="1.1" ry="0.8"/>
	<path class="st4" d="M20.3,9c0,0-6.4,1.9-6.7,6.7c0,4.7,0,8.1,0,8.1s-0.3,6.1-2.8,8.3c0,0-1.8-0.4-2.2-0.6c0,0,3.1-2.8,3.6-7.8
		c0-5-0.1-8.6-0.1-8.6S12,9.3,20.3,9z"/>
	<path class="st4" d="M17.8,34.3c0,0,0.3,1.9,3.3,1.9s3.3-1.9,3.3-1.9S17.8,34.3,17.8,34.3z"/>
	<path class="st4" d="M19.5,7.9h3.6c0,0,0-2.2-1.9-2.2S19.5,7.9,19.5,7.9z"/>
	<g>
		<path class="st3" d="M30.5,4.9l1.1-1.5c0.2-0.3,0.4-0.5,0.6-0.7v0h-1.5v-1h2.8v0.7l-1,1.5c-0.2,0.3-0.4,0.5-0.6,0.7v0h1.7v1h-3
			V4.9z"/>
	</g>
	<g>
		<path class="st3" d="M33.7,9.9l0.6-1.1c0.1-0.2,0.2-0.3,0.3-0.5v0h-0.9V7.6h1.7v0.5l-0.6,1c-0.1,0.2-0.2,0.4-0.3,0.5v0h1v0.7h-1.8
			V9.9z"/>
	</g>
</g>
</svg>
