<?xml version="1.0" encoding="utf-8"?>
<!-- Generator: Adobe Illustrator 22.1.0, SVG Export Plug-In . SVG Version: 6.00 Build 0)  -->
<svg version="1.1" id="Layer_1" xmlns="http://www.w3.org/2000/svg" xmlns:xlink="http://www.w3.org/1999/xlink" x="0px" y="0px"
	 viewBox="0 0 100 100" style="enable-background:new 0 0 100 100;" xml:space="preserve">
<style type="text/css">
	.st0{fill:#FFCC66;}
	.st1{fill:#CE9945;}
</style>
<g>
	<circle class="st0" cx="50" cy="50" r="50"/>
	<path class="st1" d="M50,7.5C26.5,7.5,7.5,26.5,7.5,50s19,42.5,42.5,42.5s42.5-19,42.5-42.5S73.5,7.5,50,7.5z M53.5,70.7v7.6h-7.1
		v-7.6c-7.5-1-12.3-5.4-12.6-11.9H42c0.4,3.2,3.7,5.3,8.4,5.3c4.3,0,7.4-2.1,7.4-5.1c0-2.5-2-4-6.9-5.1l-5.2-1.1
		c-7.3-1.5-10.8-5.3-10.8-11.4c0-6.5,4.5-11,11.6-12.2v-7.6h7.1v7.6c6.9,1.1,11.6,5.6,11.8,11.7h-7.9c-0.4-3.2-3.3-5.3-7.4-5.3
		c-4.2,0-6.9,1.9-6.9,5c0,2.5,1.9,3.9,6.6,4.9l4.8,1c8,1.7,11.5,5.1,11.5,11.3C66.1,65,61.4,69.7,53.5,70.7z"/>
</g>
</svg>
